<svg xmlns="http://www.w3.org/2000/svg" viewBox="0 0 387.986 220.569"><defs><style>.a{fill:#20a789;}.b{fill:#208581;}.c{fill:#93446f;}.d{fill:#ff7f81;}.e{fill:#fb7c38;}.f{fill:#c54658;}.g{fill:#20bc89;}.h{fill:#fff;}</style></defs><title>chucmung</title><path class="a" d="M249.681,117.513c49.7,1.576,95.444,7.181,142.968,22.293-12.783-14.572-26.188-28.8-39.964-42.435,15.985-8.766,23.978-12.712,39.964-19.314C345.125,62.946,299.383,57.34,249.681,55.765Z" transform="translate(-4.663 -2.513)"/><path class="b" d="M249.681,117.513a758.511,758.511,0,0,1,83.994,6.99V96.942c-5.623-5.527-55.443-35.124-83.994-41.177Z" transform="translate(-4.663 -2.513)"/><path class="a" d="M147.63,120.331c-49.7-1.575-95.443-7.18-142.967-22.292,12.783,14.571,26.187,28.8,39.964,42.435-15.986,8.766-23.979,12.711-39.964,19.313C52.187,174.9,97.928,180.5,147.63,182.08Z" transform="translate(-4.663 -2.513)"/><path class="b" d="M147.63,120.331a758.288,758.288,0,0,1-83.994-6.989c.125,1.212.125,25.057,0,31.334,19.7,11.5,55.443,31.35,83.994,37.4Z" transform="translate(-4.663 -2.513)"/><path class="c" d="M38.564,201.756c-.011,2.741,4.334,1.3,5.141-.79a5.771,5.771,0,0,1,1.719-.3q-2.916,4.439-5.557,9.16c-.52-.247-.89-.726-1.5-.827a3.36,3.36,0,0,0-1.531.109,1.96,1.96,0,0,0-1.424,2.1,1.356,1.356,0,0,0,1.78,1.063,6.765,6.765,0,0,0,1.68-.76c.226-.127.475-.247.707-.4a11.6,11.6,0,0,0-.175,3.081c.039.867.352,2.165,1.332,1.49.864-.6,1.043-2.393,1.054-3.349a2.891,2.891,0,0,0-1.152-2.626q2.52-4.491,5.309-8.712a4.378,4.378,0,0,1,.659,1.5c.01.034.016.069.027.1a.353.353,0,0,0-.033.057,12.161,12.161,0,0,0-1.014,5.417c.145,1.06.963,1.467,1.814.806a5.621,5.621,0,0,0,1.52-3.79,2.9,2.9,0,0,0-1.711-2.859c-.051-.166-.088-.338-.147-.5a4.172,4.172,0,0,0-.689-1.375q1.986-2.986,4.094-5.843c.16.45.341.886.536,1.31a.458.458,0,0,0-.095.22,4.152,4.152,0,0,0,.671,3.15c.505.657,1.453,1.361,2.248.521a2.581,2.581,0,0,0,.321-2.85,2.789,2.789,0,0,0-2.586-1.5,13.963,13.963,0,0,1-.613-1.512q2.2-2.965,4.509-5.8a5.976,5.976,0,0,1,.645,1.366,7.35,7.35,0,0,0-.309,3.843c.177.808.876,1.5,1.642.944s.844-1.832.809-2.688a2.576,2.576,0,0,0-1.5-2.538.255.255,0,0,0-.082,0,6.5,6.5,0,0,0-.729-1.509c1.663-2.03,3.372-4,5.106-5.944a4.58,4.58,0,0,1,1.024,1.855c-.32,1.32-.847,3.271-.343,4.359.494,1.071,1.606.493,2.324-.289a3.1,3.1,0,0,0,.492-3.314c-.361-.962-.915-2.128-2.006-1.7a.4.4,0,0,0-.073.047,4.745,4.745,0,0,0-.918-1.52q2.76-3.066,5.621-5.993a2.954,2.954,0,0,1,1.885,1.085,1.912,1.912,0,0,1,.265.7.545.545,0,0,0-.05.242.418.418,0,0,0-.133.135c-.753,1.228-1.517,2.735-1.194,4.159.248,1.091,1.258,1.793,2.238,1.137a4.114,4.114,0,0,0,1.3-3.29,2.367,2.367,0,0,0-1.535-2.535,2.72,2.72,0,0,0-.268-.883,2.952,2.952,0,0,0-1.888-1.378q3.266-3.321,6.63-6.476a8.887,8.887,0,0,1,.646,2.693c-.743,1.644-1.53,3.527-1.136,5.253.289,1.268,1.2,1.914,2.333,1.142a4.231,4.231,0,0,0,1.592-3.387,4.018,4.018,0,0,0-2.058-3.517.25.25,0,0,0-.135-.035,9.251,9.251,0,0,0-.706-2.656c2.335-2.187,4.7-4.309,7.075-6.394a8.594,8.594,0,0,1,.315,2.748.361.361,0,0,0-.211.162c-.941,1.427-1.936,3.075-1.839,4.847.059,1.086.618,2.334,1.673,2.081,1.107-.265,1.8-1.944,2.078-3.111a3.741,3.741,0,0,0-1.126-3.441,9.53,9.53,0,0,0-.332-3.779q3.423-2.991,6.873-5.856l.059.03a9.526,9.526,0,0,1-.027,4.32c-.9,1.091-2.383,3.109-2.36,4.6.013.846.93,2.03,1.634,2.007.985-.032,1.82-1.713,2.053-2.7a5.95,5.95,0,0,0-.652-4.121l0,0a10.513,10.513,0,0,0-.07-4.556.29.29,0,0,0-.034-.073c6.223-5.166,12.453-10.064,18.485-14.79a.473.473,0,0,0,.144-.534.257.257,0,0,0-.152-.148.281.281,0,0,0-.268.057c-6.133,4.805-12.469,9.788-18.8,15.051a13.365,13.365,0,0,0-4.309-1.387,4.77,4.77,0,0,0-3.341-.6,2,2,0,0,0-1.332,2.407,2.4,2.4,0,0,0,2.535,1.37,4.96,4.96,0,0,0,2.606-2.1.285.285,0,0,0,.245-.172,13.047,13.047,0,0,1,2.943,1.022q-3.465,2.894-6.913,5.906a6.448,6.448,0,0,0-2.388-1.019.1.1,0,0,0,0-.025c-.7-2-3.761-3.305-5.035-.436-.446,1-.271,2.237.544,2.591,1.11.485,2.821-.7,3.87-1.436a.1.1,0,0,0,.014-.015,5.836,5.836,0,0,1,2.393.874c-2.159,1.9-4.309,3.83-6.435,5.816a5.8,5.8,0,0,0-3.87-2.7,3.439,3.439,0,0,0-2.532-1.17,2.324,2.324,0,0,0-2.332,1.711,1.53,1.53,0,0,0,1.329,2c1.336.108,2.939-.683,4.232-1.341a.353.353,0,0,0,.145-.144,5.5,5.5,0,0,1,2.493,2.146q-3.582,3.366-7.07,6.907a4.992,4.992,0,0,0-2.308-2.23,3.88,3.88,0,0,0-2.629-1.826,2.323,2.323,0,0,0-2.721,1.345,1.51,1.51,0,0,0,.8,2.028c1.132.4,2.788-.489,4-.93.046.017.091.037.136.057a.21.21,0,0,0,.18.075,4.6,4.6,0,0,1,2.016,2q-2.967,3.045-5.835,6.232a.269.269,0,0,0-.051-.044,6.116,6.116,0,0,0-3.447-.623.226.226,0,0,0-.07-.051,4.313,4.313,0,0,0-3.41-.051,2.2,2.2,0,0,0-1.226,2.222c.221,1.147,1.539,1.15,2.375.811a6.377,6.377,0,0,0,2.424-2.179,5.834,5.834,0,0,1,2.872.517c-1.631,1.834-3.242,3.695-4.811,5.609a6.161,6.161,0,0,0-2.6-.851l-.008,0a3.357,3.357,0,0,0-2.731-.588,1.731,1.731,0,0,0-1.476,1.808,1.475,1.475,0,0,0,1.822,1.415,4.733,4.733,0,0,0,2.911-1.775,5.553,5.553,0,0,1,1.582.6q-2.348,2.89-4.589,5.906a6.111,6.111,0,0,0-2.4-.515c-.843-1.243-4.573-1.3-4.56,1.113.006,1.126.973,1.443,1.775,1.361a4.287,4.287,0,0,0,2.759-1.644.507.507,0,0,0,.039-.067,5.817,5.817,0,0,1,1.911.4q-2.088,2.849-4.07,5.811a6.1,6.1,0,0,0-2.349.353c-.114-.113-.171-.33-.292-.444a1.449,1.449,0,0,0-.666-.267,4.632,4.632,0,0,0-1.945-.241A2.559,2.559,0,0,0,38.564,201.756Z" transform="translate(-4.663 -2.513)"/><path class="d" d="M310,23.3c-.763,1.693,1.044,6.179,3.136,11.374a75.278,75.278,0,0,1,3.258,9.094,32.866,32.866,0,0,1,.572,8.175,10.973,10.973,0,0,1-.35,2.6v0c-.022.091-.044.182-.066.276a.269.269,0,0,0,0,.085q-1.457,4.293-3.158,8.31a27.282,27.282,0,0,0-1.715,3.863l-.034.086q-1.926,4.122-4.111,7.918c3.7-9.108,5.132-21.626,3.1-30.888-.47-2.145-1.487-3.368-2.793-3.353a2.61,2.61,0,0,0-2.177,1.534,6.1,6.1,0,0,0-.517,2.547,48.808,48.808,0,0,0,1.358,11.324c.863,4.308,1.755,8.763,1.163,13.18a41.486,41.486,0,0,1-2.794,9.315,15.022,15.022,0,0,1-1.64,3.067.277.277,0,0,0-.04.117c-.337.483-.674.966-1.018,1.439-.86,1.183-1.75,2.328-2.656,3.45,1.375-5.377,1.885-14.341,1.295-23.291-.325-4.928-1.487-16.748-5.314-20.216a3.026,3.026,0,0,0-3.4-.658c-2.6,1.077-.092,8.362,2.816,16.8a109.564,109.564,0,0,1,3.89,12.813,51.06,51.06,0,0,1,.46,11.616,18.406,18.406,0,0,1-.606,3.989q-1.224,1.466-2.5,2.852c-.238.252-.464.5-.671.736l-.05.052a70.808,70.808,0,0,1-23.861,16.908.279.279,0,0,0-.148.366.259.259,0,0,0,.057.085.276.276,0,0,0,.308.063,71.264,71.264,0,0,0,23.861-16.845l.009-.006c.089-.094.174-.182.259-.269l0,0a17.131,17.131,0,0,1,2.313-2.068,48.422,48.422,0,0,1,8.074-5.191,96.122,96.122,0,0,1,10.137-3.63c6.813-2.178,12.7-4.06,12.477-6.208a1.973,1.973,0,0,0-1.439-1.8C324,71.8,315.335,76.7,311.773,78.852a98.743,98.743,0,0,0-11.947,8.474c.958-1.18,1.9-2.386,2.8-3.633.78-1.072,1.537-2.175,2.28-3.3a.259.259,0,0,0,.031-.035l.041-.072q.621-.944,1.226-1.911c.216-.287.443-.572.714-.873a40.482,40.482,0,0,1,7.074-6.709c3.708-2.52,8.166-3.719,12.477-4.879a49.224,49.224,0,0,0,10.893-3.867,5.99,5.99,0,0,0,2.055-1.614,2.57,2.57,0,0,0,.34-2.656c-.612-1.178-2.2-1.543-4.363-1-9.213,2.3-19.66,9.054-26.137,16.361q1.437-2.65,2.755-5.452a.262.262,0,0,0,.057-.088l.087-.213c.255-.547.5-1.1.753-1.657a12.614,12.614,0,0,1,.737-1.228,40.406,40.406,0,0,1,6.1-7.6,90.063,90.063,0,0,1,9.213-6.687c5.244-3.507,10.2-6.821,10.619-8.961a1.333,1.333,0,0,0-.189-1.036,2.919,2.919,0,0,0-3.044-1.258c-5.5.744-15.349,11.8-20.957,20.8q2.277-5.939,4.065-12.423c.211-.767.417-1.559.615-2.361a11.388,11.388,0,0,1,1.22-2.385,32.17,32.17,0,0,1,4.851-6.047,72.091,72.091,0,0,1,7.333-5.322c4.369-2.923,8.143-5.447,8.483-7.175a1.113,1.113,0,0,0-.159-.868,2.377,2.377,0,0,0-2.479-1.026c-5.109.69-14.9,12.5-18.617,19.922.167-.887.315-1.783.414-2.693h0c1.115-6.757.5-19.123-2.6-21.723a2.027,2.027,0,0,0-2.093-.391.914.914,0,0,0-.538.5c-.515,1.119.5,3.776,1.8,7.14a45.306,45.306,0,0,1,2.379,7.355,31.4,31.4,0,0,1,.5,6.82l0,.232a41.729,41.729,0,0,1-1.025,5.488l-.016.039c-.006.014,0,.028,0,.043-.194.782-.395,1.555-.6,2.3-.309,1.122-.633,2.227-.964,3.325a63.6,63.6,0,0,0-.012-12.606c-.323-3.425-1.405-11.7-4.329-14.506a2.7,2.7,0,0,0-2.93-.742A1.161,1.161,0,0,0,310,23.3Z" transform="translate(-4.663 -2.513)"/><path class="d" d="M204.4,159.44c-1.787-.5-5.955,1.952-10.781,4.793a75.269,75.269,0,0,1-8.508,4.574,32.848,32.848,0,0,1-8,1.782,11.077,11.077,0,0,1-2.62.04h0l-.281-.024a.239.239,0,0,0-.084.014q-4.463-.8-8.688-1.887a27.256,27.256,0,0,0-4.075-1.122l-.09-.021q-4.362-1.291-8.441-2.888c9.556,2.3,22.148,1.859,31-1.525,2.052-.784,3.11-1.972,2.9-3.261a2.608,2.608,0,0,0-1.841-1.925,6.111,6.111,0,0,0-2.595-.133,48.86,48.86,0,0,0-11,3.028c-4.132,1.494-8.405,3.038-12.861,3.11a41.494,41.494,0,0,1-9.627-1.378,15.076,15.076,0,0,1-3.276-1.165.275.275,0,0,0-.122-.022c-.528-.262-1.056-.523-1.575-.793-1.3-.675-2.562-1.384-3.807-2.114,5.523.561,14.463-.268,23.225-2.183,4.825-1.055,16.341-3.961,19.2-8.261a3.027,3.027,0,0,0,.144-3.46c-1.451-2.413-8.282,1.153-16.191,5.283a109.245,109.245,0,0,1-12.092,5.752,51.03,51.03,0,0,1-11.418,2.183,18.393,18.393,0,0,1-4.035-.006q-1.63-.993-3.193-2.049c-.284-.2-.561-.385-.827-.554l-.059-.042a70.812,70.812,0,0,1-20.269-21.08.278.278,0,0,0-.383-.093.265.265,0,0,0-.076.069.279.279,0,0,0-.017.314,71.279,71.279,0,0,0,20.207,21.091l.007.007.3.216,0,0a17.173,17.173,0,0,1,2.389,1.98,48.356,48.356,0,0,1,6.333,7.212,95.871,95.871,0,0,1,5.1,9.485c3.167,6.413,5.9,11.951,8,11.415a1.974,1.974,0,0,0,1.565-1.691c.575-3.618-5.554-11.456-8.216-14.658A98.689,98.689,0,0,0,139.574,158.9q1.964,1.158,4.009,2.231,1.766.916,3.6,1.763a.211.211,0,0,0,.04.026l.077.029q1.025.476,2.072.929c.315.17.631.354.97.576a40.453,40.453,0,0,1,7.686,6c3.044,3.292,4.892,7.522,6.68,11.613a49.287,49.287,0,0,0,5.444,10.2,5.992,5.992,0,0,0,1.9,1.792,2.569,2.569,0,0,0,2.677-.059c1.074-.78,1.2-2.406.344-4.463-3.645-8.769-11.878-18.095-20.067-23.414q2.835,1.029,5.8,1.914a.267.267,0,0,0,.095.044l.224.054c.579.171,1.164.335,1.75.5a12.561,12.561,0,0,1,1.325.546,40.529,40.529,0,0,1,8.427,4.9,90.346,90.346,0,0,1,7.982,8.116c4.249,4.665,8.262,9.07,10.44,9.169a1.333,1.333,0,0,0,1-.341,2.916,2.916,0,0,0,.791-3.2c-1.553-5.331-13.955-13.424-23.688-17.63q6.212,1.368,12.889,2.171c.791.095,1.6.181,2.427.258a11.374,11.374,0,0,1,2.54.852,32.109,32.109,0,0,1,6.7,3.9,71.76,71.76,0,0,1,6.353,6.459c3.54,3.886,6.6,7.242,8.357,7.322a1.117,1.117,0,0,0,.835-.286,2.381,2.381,0,0,0,.646-2.6c-1.442-4.949-14.578-12.877-22.47-15.446.9.032,1.81.046,2.726.008h0c6.848.1,18.985-2.351,21.1-5.8a2.022,2.022,0,0,0,.075-2.128.913.913,0,0,0-.575-.457c-1.183-.343-3.659,1.06-6.794,2.837a45.371,45.371,0,0,1-6.919,3.447,31.394,31.394,0,0,1-6.669,1.511l-.23.032a41.513,41.513,0,0,1-5.579-.2l-.041-.009c-.015,0-.028,0-.043,0-.8-.075-1.6-.159-2.369-.252-1.155-.138-2.3-.294-3.431-.458a63.659,63.659,0,0,0,12.464-1.887c3.339-.829,11.36-3.129,13.7-6.437a2.7,2.7,0,0,0,.3-3.008A1.16,1.16,0,0,0,204.4,159.44Z" transform="translate(-4.663 -2.513)"/><path class="c" d="M302.651,13.912c-1.377-2.371-4.4,1.07-4.039,3.279a5.8,5.8,0,0,1-1.33,1.13c.182-3.536.248-7.106.167-10.713.574-.049,1.135.177,1.71-.043a3.356,3.356,0,0,0,1.266-.867,1.96,1.96,0,0,0,.17-2.528,1.354,1.354,0,0,0-2.073-.018,6.712,6.712,0,0,0-1.065,1.5c-.131.225-.286.453-.411.7a11.627,11.627,0,0,0-1.4-2.747c-.472-.729-1.4-1.691-1.9-.613-.446.951.308,2.592.782,3.423A2.892,2.892,0,0,0,296.842,8.1c.063,3.432,0,6.832-.18,10.2a4.393,4.393,0,0,1-1.328-.965c-.026-.023-.049-.051-.075-.075a.484.484,0,0,0,0-.066A12.178,12.178,0,0,0,293.4,12.01c-.66-.842-1.572-.779-1.972.221a5.622,5.622,0,0,0,.6,4.039,2.909,2.909,0,0,0,2.922,1.6c.127.117.247.247.379.356a4.166,4.166,0,0,0,1.289.838c-.137,2.387-.336,4.756-.58,7.111-.366-.307-.742-.592-1.125-.859a.473.473,0,0,0-.028-.238,4.155,4.155,0,0,0-2.172-2.379c-.768-.312-1.941-.44-2.2.686a2.58,2.58,0,0,0,1.162,2.622,2.792,2.792,0,0,0,2.987-.016,13.936,13.936,0,0,1,1.294,1q-.4,3.669-.961,7.285a5.983,5.983,0,0,1-1.246-.853,7.355,7.355,0,0,0-1.675-3.473c-.561-.607-1.513-.849-1.894.016s.2,2.007.66,2.728a2.575,2.575,0,0,0,2.575,1.433.234.234,0,0,0,.074-.037,6.481,6.481,0,0,0,1.391.934c-.41,2.592-.887,5.159-1.4,7.71a4.6,4.6,0,0,1-1.821-1.084c-.39-1.3-.922-3.25-1.906-3.936-.969-.673-1.636.387-1.86,1.424a3.1,3.1,0,0,0,1.25,3.109c.8.648,1.864,1.374,2.592.456a.393.393,0,0,0,.038-.077,4.743,4.743,0,0,0,1.561.847q-.834,4.041-1.823,8.012a2.945,2.945,0,0,1-2.175.016,1.907,1.907,0,0,1-.581-.468.54.54,0,0,0-.08-.234.4.4,0,0,0,.047-.184c.03-1.44-.073-3.127-1.071-4.192a1.464,1.464,0,0,0-2.5.15,4.112,4.112,0,0,0,.535,3.5,2.369,2.369,0,0,0,2.606,1.412,2.7,2.7,0,0,0,.677.626,2.956,2.956,0,0,0,2.326.236c-.76,3.011-1.583,5.988-2.45,8.938a8.87,8.87,0,0,1-1.917-2c-.19-1.794-.462-3.817-1.674-5.108-.891-.948-2-1.047-2.591.194a4.231,4.231,0,0,0,.338,3.728,4.02,4.02,0,0,0,3.552,1.994.251.251,0,0,0,.135-.038,9.246,9.246,0,0,0,1.951,1.936c-.91,3.066-1.878,6.092-2.875,9.092a8.6,8.6,0,0,1-1.66-2.212.362.362,0,0,0,.1-.247c.091-1.706.117-3.632-.862-5.112-.6-.907-1.712-1.7-2.5-.95-.822.788-.569,2.586-.221,3.735a3.739,3.739,0,0,0,2.71,2.4,9.519,9.519,0,0,0,2.2,3.094q-1.443,4.311-2.973,8.526c-.022,0-.043,0-.065,0a9.519,9.519,0,0,1-2.16-3.742c.223-1.395.486-3.887-.289-5.164-.439-.724-1.829-1.283-2.425-.907-.833.525-.7,2.4-.405,3.37a5.95,5.95,0,0,0,2.644,3.227l0,0a10.527,10.527,0,0,0,2.363,3.9.36.36,0,0,0,.066.046c-2.76,7.6-5.662,14.976-8.479,22.1a.473.473,0,0,0,.146.534.262.262,0,0,0,.206.05.278.278,0,0,0,.2-.184c2.865-7.245,5.815-14.748,8.616-22.485a13.4,13.4,0,0,0,4.42-.981,4.771,4.771,0,0,0,3.185-1.171,1.994,1.994,0,0,0-.066-2.75,2.393,2.393,0,0,0-2.88.1,4.968,4.968,0,0,0-1.189,3.128.286.286,0,0,0-.124.272,13.088,13.088,0,0,1-3.056.606q1.528-4.248,2.982-8.59a6.441,6.441,0,0,0,2.575-.327c.007.006.009.014.016.02,1.616,1.373,4.916.952,4.566-2.168-.123-1.093-.9-2.068-1.779-1.962-1.2.143-2.083,2.027-2.614,3.195,0,.007,0,.013,0,.02a5.806,5.806,0,0,1-2.506.455c.9-2.731,1.784-5.482,2.614-8.27a5.794,5.794,0,0,0,4.7.374,3.435,3.435,0,0,0,2.777-.269,2.325,2.325,0,0,0,1.147-2.655,1.528,1.528,0,0,0-2.158-1.057c-1.208.582-2.191,2.074-2.974,3.3a.36.36,0,0,0-.054.2,5.506,5.506,0,0,1-3.235-.592c.927-3.143,1.805-6.32,2.612-9.533a4.988,4.988,0,0,0,3.118.758,3.88,3.88,0,0,0,3.191.248,2.325,2.325,0,0,0,1.669-2.536,1.51,1.51,0,0,0-1.719-1.343c-1.18.225-2.16,1.83-2.984,2.825-.049.008-.1.013-.146.019a.209.209,0,0,0-.194.026,4.6,4.6,0,0,1-2.752-.712q1.022-4.125,1.886-8.326a.255.255,0,0,0,.067.012,6.1,6.1,0,0,0,3.289-1.2.224.224,0,0,0,.086.009,4.308,4.308,0,0,0,2.968-1.679,2.2,2.2,0,0,0-.064-2.537c-.77-.878-1.909-.214-2.459.5a6.372,6.372,0,0,0-.991,3.106,5.83,5.83,0,0,1-2.74,1c.481-2.406.931-4.826,1.318-7.27a6.163,6.163,0,0,0,2.671-.579l.007,0a3.36,3.36,0,0,0,2.653-.873,1.73,1.73,0,0,0,.36-2.306,1.475,1.475,0,0,0-2.287-.3,4.74,4.74,0,0,0-1.616,3,5.526,5.526,0,0,1-1.666.284q.565-3.68.976-7.415a6.114,6.114,0,0,0,2.333-.769c1.356.646,4.6-1.192,3.373-3.265a1.425,1.425,0,0,0-2.219-.278,4.29,4.29,0,0,0-1.551,2.813.676.676,0,0,0,0,.078,5.812,5.812,0,0,1-1.852.617c.242-2.341.44-4.7.576-7.07a6.136,6.136,0,0,0,1.849-1.492c.155.039.314.2.476.236a1.453,1.453,0,0,0,.709-.106,4.626,4.626,0,0,0,1.8-.775A2.559,2.559,0,0,0,302.651,13.912Z" transform="translate(-4.663 -2.513)"/><path class="e" d="M113.717,175.652c-.636-1.632-5.573-.107-4.936,1.529a5.851,5.851,0,0,0,6.506,3.289,2.91,2.91,0,0,0,.452-.14c3.393.219,6.872-1.777,7.226-5.193.494-4.766-5.452-2.9-5.32-.5.1,1.854-1.139,4.358-1.807,4.713-2.976-15.936,4.805-31.425,15.685-44.114.958-1.118.036-1.833-.892-.674-9.765,12.188-18.33,26.737-16.167,42.8A15.1,15.1,0,0,1,113.717,175.652Z" transform="translate(-4.663 -2.513)"/><path class="c" d="M97.3,200.889c7.364,4.738,9.02-6.061,14.233-13.473-4.442,9.007-4.947,23.235,3.651,24.794,7.915,1.435,3.078-14.533,3.009-26.067,2.767,10.263,1.841,25.169,9.584,22.475,9.264-3.222,3.474-18-4.484-24.615,9.1,5.628,12.02,18.494,17.731,12.341,5.262-5.669.8-15.447-8.282-17.99a13.266,13.266,0,0,0,3.107-3.874c2.2-4.1-5.984-7.744-10.845-1.357a22.551,22.551,0,0,1-6.569,6.341,37.629,37.629,0,0,1-15.356-4.155c-5.786-3.4-6.027,4.954-3.071,7.649a9.445,9.445,0,0,0,1.94,1.368C93.752,188.554,90.062,196.232,97.3,200.889Z" transform="translate(-4.663 -2.513)"/><path class="e" d="M109.845,191.417l.047.081a1.129,1.129,0,0,0,1.946-1.145l-.048-.081a1.046,1.046,0,0,0-.14-.185,11.305,11.305,0,0,1,4.9-5.749,28.615,28.615,0,0,0-1.584,7.585,1.037,1.037,0,0,0-1.348-.2,1.129,1.129,0,0,0,1.145,1.945,1.066,1.066,0,0,0,.124-.09c-.015.635-.009,1.276.014,1.924a1.1,1.1,0,0,0-.787.787l-.033.129a1.129,1.129,0,0,0,2.185.566l.033-.129c.008-.03.008-.061.013-.091a1.28,1.28,0,0,0,.4.451c-.01.006-.021.008-.031.015a1.129,1.129,0,1,0,1.145.027c.015-.008.029-.012.044-.02a1.057,1.057,0,0,0,.48-1.319,1.169,1.169,0,0,0,.137-.031c.215.874.463,1.749.729,2.624a1.131,1.131,0,0,0-.2,1.384l.048.081a1.129,1.129,0,1,0,1.945-1.145l-.048-.081a1.174,1.174,0,0,0-.88-.549q-.448-1.489-.8-2.978a1.19,1.19,0,0,0-.269-1.2q-.312-1.5-.526-3a1.12,1.12,0,0,0,.154-1.328l-.047-.081a1.093,1.093,0,0,0-.317-.336c-.1-.937-.167-1.873-.2-2.806a49.176,49.176,0,0,0,1.441,4.878,1.217,1.217,0,0,0,.618,1.668c.116.3.23.592.352.887a1.136,1.136,0,0,0,.892,2.049,1.26,1.26,0,0,0,.673,1.383c.064.127.126.254.19.381a1.129,1.129,0,0,0-.2,1.382l.048.081a1.129,1.129,0,1,0,1.945-1.145l-.047-.081a1.173,1.173,0,0,0-.892-.55c-.021-.042-.039-.083-.06-.124.009-.005.018-.005.027-.01a1.039,1.039,0,0,0,.542-1.025,1.1,1.1,0,0,0,1.617.655,1.129,1.129,0,0,0-1.145-1.945,1.021,1.021,0,0,0-.533,1,1.131,1.131,0,0,0-1.384-.786,1.229,1.229,0,0,0-.715-1.362c-.122-.293-.249-.584-.365-.877l.011,0a1.16,1.16,0,0,0-.788-2.123c-.41-1.2-.79-2.405-1.1-3.622a30.368,30.368,0,0,0,3.633,5.488,1.13,1.13,0,1,0,.894-.332l-.007-.008a1.192,1.192,0,0,0,.283-.118,1.106,1.106,0,0,0,.278-1.691,1.036,1.036,0,0,0,.192-.237c.063.1.129.2.191.3a1.228,1.228,0,0,0,.907,1.586c.2.376.381.762.562,1.15a1.129,1.129,0,0,0,1.247,1.872,1.145,1.145,0,0,0-.356-2.078q-.163-.352-.336-.7a1.187,1.187,0,0,0,.263-.1,1.168,1.168,0,0,0-.514-2.142,1.035,1.035,0,0,0-1.114-.2c-.144-.231-.287-.464-.437-.69a1.119,1.119,0,0,0,.548-.16,1.107,1.107,0,0,0,.44-.463,1.143,1.143,0,0,0,1.707.949,1.168,1.168,0,0,0-.451-2.136,13.524,13.524,0,0,0-8.731-5.045.461.461,0,0,0-.161-.041,4.649,4.649,0,0,0-1.107.417,11.905,11.905,0,0,0-6.461,6.923.974.974,0,0,0-.428.15A1.148,1.148,0,0,0,109.845,191.417Zm16.133-3.332a1.3,1.3,0,0,0-.508-.9.949.949,0,0,0,.069-.113q.343.342.673.712A1.083,1.083,0,0,0,125.978,188.085Zm-2.154-2.467a1.147,1.147,0,0,0,.1,1.828.992.992,0,0,0-.145.279,27.176,27.176,0,0,0-3.638-3.912A11.884,11.884,0,0,1,123.824,185.618Zm-.543,2.925a1.18,1.18,0,0,0-.354.134,1.105,1.105,0,0,0-.277,1.691,1.041,1.041,0,0,0-.239.3,28.642,28.642,0,0,1-3.711-6.862A25.965,25.965,0,0,1,123.281,188.543Zm-5.612,5.269a1.035,1.035,0,0,0-.475,1.279,1.166,1.166,0,0,0-.483.162,1.054,1.054,0,0,0-.536.743,1.13,1.13,0,0,0-.313-.35,31.668,31.668,0,0,1,.045-3.283,1.064,1.064,0,0,0,1.43.271,1.137,1.137,0,0,0,.407-.395c.08.48.17.96.266,1.441A1.187,1.187,0,0,0,117.669,193.812Zm-.556-7.942q.048,1.61.21,3.224a.911.911,0,0,0-.269.115,1.131,1.131,0,0,1-.883,1.444,1.052,1.052,0,0,0-.105.077A27.43,27.43,0,0,1,117.113,185.87Z" transform="translate(-4.663 -2.513)"/><path class="e" d="M112.286,194.106a1.15,1.15,0,0,0,1.166,1.982A1.15,1.15,0,0,0,112.286,194.106Z" transform="translate(-4.663 -2.513)"/><path class="e" d="M223.18,81.854a7.057,7.057,0,0,1-.317-4.682c.982-4.222,12.38-6.734,21.885-3.2-4.347-2.829-10.038-2.511-12.411-4.171-7.121-4.981-1.676-11.013,1.277-12.379,3.1-1.432,7.031,1.161,15.977,11.253-7.112-8.907-6.534-15.116-5.952-16.989,1.312-4.231,7.738-7.92,12.133-4.631,8.618,6.451-3.223,16.084-1.678,21.261.444-4.718,11.119-17.628,19.64-12.616a6.06,6.06,0,0,1,2.862,3.4,4.9,4.9,0,0,1-.473,3.556c-1.1,2.085-13.2,4.026-15.227,6.321,7.314-3.575,11.817-.049,12.443,1.5a7.95,7.95,0,0,1,.591,4.394,4.723,4.723,0,0,1-1.683,2.786c-2.577,2.031-5.8.42-8.711-.62a21.669,21.669,0,0,0-10.195-1.121,6.689,6.689,0,0,0-1.39.194c-.152.664-2.627,1.624-2.891,4.922-.415,5.171-2.162,9.263-5.8,11.071-7.278,3.62-10.119-2.009-10.309-5.6-.178-3.4,2.9-6.854,11.466-10.59-8.613,1.446-10.6,7.854-15.867,9.443C226.41,86,223.778,83.046,223.18,81.854Z" transform="translate(-4.663 -2.513)"/><path class="c" d="M256.359,114.5a39.133,39.133,0,0,0-3.493-37.053,5.756,5.756,0,0,1-.191,2.312c-.51,1.688-1.095,2.975-.4,4.723.143.363-.358.529-.572.275-2.048-2.437-3.541-6.426-.314-8.587a.817.817,0,0,1,.408-.377.321.321,0,0,1,.121-.2.348.348,0,0,1,.232-.06,1.225,1.225,0,0,1,.826-.159c.011,0,.017.013.028.017,1.422-.484,3.188.365,4.367,1.113a13.826,13.826,0,0,1,4.088,4.382.32.32,0,0,1-.534.352,7.2,7.2,0,0,0-2.746-2.384,15.427,15.427,0,0,0-3.013-.6,5.751,5.751,0,0,1-1.246-.388,39.83,39.83,0,0,1,3.027,36.893.32.32,0,0,1-.585-.259Z" transform="translate(-4.663 -2.513)"/><path class="c" d="M244.181,72.629a.625.625,0,0,0,.268-.095,7.45,7.45,0,0,0,5.865.836,2.89,2.89,0,0,0,.7-.232.29.29,0,0,0,.062-.083,8.464,8.464,0,0,0,2.273-5.885.731.731,0,0,0-.619-1.218.717.717,0,0,0-.46,1.133.725.725,0,0,0-.725.084c-.016-.169-.038-.338-.058-.507a.649.649,0,0,0,.464-.535.73.73,0,0,0-.59-1.245.711.711,0,0,0-.169.052c-.035-.157-.071-.314-.11-.471a.716.716,0,0,0-.643-1.152.706.706,0,0,0,.128,1.4c.064.26.126.52.177.781a.767.767,0,0,0,.181,1.128c.009.074.016.148.024.221a.647.647,0,0,0-.187-.04.691.691,0,0,0-.8-.715.767.767,0,0,0-.183.054v-.007a.707.707,0,1,0-.566.189,19.012,19.012,0,0,0,.384,4.1c-.326-.715-.614-1.451-.885-2.2a.725.725,0,0,0-.449-1.343l-.008,0c-.058-.189-.111-.38-.166-.57a.77.77,0,0,0-.187-.945.708.708,0,0,0,.366-.926.639.639,0,0,0,.654.28.706.706,0,0,0-.206-1.4.685.685,0,0,0-.531.954.647.647,0,0,0-.666-.286l-.017.005c-.006-.028-.014-.056-.02-.084a.735.735,0,0,0,.219-.618l-.009-.058a.706.706,0,1,0-1.4.206l.009.058a.7.7,0,0,0,.64.594c.019.087.038.173.058.26a.787.787,0,0,0,.214.938.71.71,0,0,0,.37,1.348c.057.192.117.381.177.571a.762.762,0,0,0,.353,1.055,31.054,31.054,0,0,0,1.214,2.942c-.349-.469-.682-.953-1-1.446a.673.673,0,0,0,.022-.289l-.008-.058a.7.7,0,0,0-.6-.586q-.484-.813-.921-1.667a.743.743,0,0,0-.341-.692q-.414-.862-.781-1.765a.731.731,0,0,0,.214-.612l-.009-.059a.706.706,0,0,0-1.4.206l.009.058a.706.706,0,0,0,.642.595c.214.53.437,1.054.675,1.564a.829.829,0,0,0-.079.039.661.661,0,0,0-.751-.454c-.011,0-.019,0-.03.007a.706.706,0,1,0-.547.463l.021-.005a.808.808,0,0,0-.02.379.533.533,0,0,0-.042-.04l-.067-.049a.706.706,0,1,0-.842,1.133l.067.05a.691.691,0,0,0,.692.075c.243.324.492.639.749.942a.782.782,0,0,0-.1,0,.706.706,0,0,0,.206,1.4.647.647,0,0,0,.576-.628,17.922,17.922,0,0,0,3.75,3.074,7.075,7.075,0,0,1-4.646-.877.64.64,0,0,0,0-.145l-.009-.058a.706.706,0,0,0-1.4.206l.009.058A.718.718,0,0,0,244.181,72.629Zm8.6-5.253c-.009.207-.025.41-.048.611a.6.6,0,0,0-.078-.028.814.814,0,0,0-.1-.636A.674.674,0,0,0,252.778,67.376Zm-1.4,4.32a17.071,17.071,0,0,0,.236-3.334.6.6,0,0,0,.18.079.717.717,0,0,0,.67.929A7.475,7.475,0,0,1,251.381,71.7Zm-.7.567a17.961,17.961,0,0,1-.886-4.8.659.659,0,0,0,.236.054.691.691,0,0,0,.8.715.753.753,0,0,0,.225-.073A16.247,16.247,0,0,1,250.68,72.263Zm-4.211-4.538q.213.408.437.807a.7.7,0,0,0-.354-.033.665.665,0,0,0-.59.693,19.691,19.691,0,0,1-1.311-1.582.689.689,0,0,0,.015-.293.659.659,0,0,0,.553.152.734.734,0,0,0,.3-.111.649.649,0,0,0,.734.437A.737.737,0,0,0,246.469,67.725Zm.211,2.2c.027,0,.053,0,.082,0a.771.771,0,0,0,.24-.08.728.728,0,0,0,.757.437.624.624,0,0,0,.176-.05q.557.849,1.163,1.653A17.256,17.256,0,0,1,246.68,69.926Z" transform="translate(-4.663 -2.513)"/><path class="c" d="M243.513,69.764a.719.719,0,0,1-.209-1.422A.719.719,0,0,1,243.513,69.764Z" transform="translate(-4.663 -2.513)"/><path class="f" d="M85.473,214.338c-.851,4.056,9.945,7.628,11.353-7.475,1.326-14.207-7.65-17.3-13.858-16.346s-16.947,13.641-14.9,20.858c1.425,5.021,5.617,2.735,7.1.795C75.031,214.765,79.783,221.155,85.473,214.338Z" transform="translate(-4.663 -2.513)"/><path class="e" d="M87.567,209.968c3.448-5.644,4.831-13.014.788-17.173C88.355,192.8,92.009,200.232,87.567,209.968Z" transform="translate(-4.663 -2.513)"/><path class="e" d="M86.929,192.891c-3.847.317-8.215,6.276-10.032,14.794C81.688,195.54,86.929,192.891,86.929,192.891Z" transform="translate(-4.663 -2.513)"/><path class="e" d="M82.766,222.773l.156.076a1.485,1.485,0,0,0,1.3-2.671l-.155-.076a1.486,1.486,0,0,0-1.3,2.671Z" transform="translate(-4.663 -2.513)"/><path class="e" d="M78.561,220.817a1.189,1.189,0,0,0-1.04,2.136A1.189,1.189,0,0,0,78.561,220.817Z" transform="translate(-4.663 -2.513)"/><path class="e" d="M72.107,219.989c2.5,1.218,4.4-2.669,1.894-3.889S69.6,218.769,72.107,219.989Z" transform="translate(-4.663 -2.513)"/><path class="e" d="M87.577,187.5c.105-1.307-3.72-1.9-3.826-.584a4.382,4.382,0,0,0,3.308,4.344,2.11,2.11,0,0,0,.35.054c2.215,1.258,5.213,1.051,6.569-1.135,1.892-3.051-2.726-3.738-3.423-2.076a5.114,5.114,0,0,1-2.759,2.584C91,178.971,113,130.673,123.87,123.971c.939-.578.624-1.223-.381-.746-10.567,5.019-32.171,54.138-35.97,65.671A11.672,11.672,0,0,1,87.577,187.5Z" transform="translate(-4.663 -2.513)"/><path class="f" d="M265.812,23.906c-.769-4.073-12.109-3.232-7.62,11.257,4.223,13.63,13.7,13.048,19.067,9.783s10.422-19.1,5.763-24.976c-3.241-4.091-6.236-.373-6.864,1.988C275.293,19.508,268.454,15.428,265.812,23.906Z" transform="translate(-4.663 -2.513)"/><path class="e" d="M265.554,28.745c-1.021,6.534.527,13.871,5.856,16.163C271.41,44.908,265.184,39.44,265.554,28.745Z" transform="translate(-4.663 -2.513)"/><path class="e" d="M272.69,44.273c3.432-1.769,5.181-8.947,3.594-17.511C276.516,39.816,272.69,44.273,272.69,44.273Z" transform="translate(-4.663 -2.513)"/><path class="e" d="M265.078,15.078l-.172-.011a1.486,1.486,0,1,0-.177,2.966l.172.01a1.485,1.485,0,0,0,.177-2.965Z" transform="translate(-4.663 -2.513)"/><path class="e" d="M269.712,15.272a1.189,1.189,0,0,0,.142-2.372A1.189,1.189,0,0,0,269.712,15.272Z" transform="translate(-4.663 -2.513)"/><path class="e" d="M275.99,13.562c-2.778-.166-3.041,4.152-.258,4.318S278.773,13.729,275.99,13.562Z" transform="translate(-4.663 -2.513)"/><path class="e" d="M274.16,49.5c.4,1.248,4.163.324,3.758-.927a4.381,4.381,0,0,0-4.721-2.744,2.136,2.136,0,0,0-.344.084c-2.528-.312-5.217,1.028-5.631,3.567-.578,3.543,3.95,2.408,3.957.605a5.115,5.115,0,0,1,1.557-3.445c1.528,12.048-.266,65.087-7.739,75.445-.645.9-.108,1.37.638.543,7.835-8.686,8.956-62.335,8.042-74.442A11.3,11.3,0,0,1,274.16,49.5Z" transform="translate(-4.663 -2.513)"/><path class="g" d="M63.761,144.558c89.7,12.425,180.214,1.681,269.914,14.132V96.942C243.975,84.49,153.462,95.235,63.761,82.81Z" transform="translate(-4.663 -2.513)"/><path class="h" d="M110.964,101.457a5.131,5.131,0,0,1,2.448.662,3.945,3.945,0,0,1,1.3,1.291,3.651,3.651,0,0,1,.5,1.488,8.146,8.146,0,0,1,.042,1.282.433.433,0,0,1-.2.339.385.385,0,0,1-.388.046,4.233,4.233,0,0,0-2.88-.216,9.412,9.412,0,0,0-3.023,1.511,22.534,22.534,0,0,0-3.138,2.8q-1.6,1.689-3.195,3.693.264,2.506.432,4.867t.4,4.216a14.153,14.153,0,0,0,.654,3q.418,1.149,1.188,1.2a1.974,1.974,0,0,0,1.345-.494,8.166,8.166,0,0,0,1.271-1.253,13.166,13.166,0,0,0,1.018-1.41,10.6,10.6,0,0,1,.619-.925.428.428,0,0,1,.432-.184.66.66,0,0,1,.4.272,1,1,0,0,1,.175.571,1.023,1.023,0,0,1-.254.685c-.1.159-.284.433-.542.826s-.585.84-.979,1.341-.84,1.017-1.341,1.547a10.655,10.655,0,0,1-1.65,1.422,8.31,8.31,0,0,1-1.921,1,4.839,4.839,0,0,1-2.139.27,3.039,3.039,0,0,1-1.942-.91,6.7,6.7,0,0,1-1.341-2.1,16.746,16.746,0,0,1-.917-3q-.366-1.707-.63-3.652-1.524,1.94-3.035,3.668a36.82,36.82,0,0,1-2.98,3.057,14.614,14.614,0,0,1-2.919,2.1,6.2,6.2,0,0,1-2.819.787l-.1-.006a1.7,1.7,0,0,1-.973-.43,3.614,3.614,0,0,1-.831-1,7.278,7.278,0,0,1-.586-1.281,4.207,4.207,0,0,1-.253-1.3,2.385,2.385,0,0,1,.189-1.057.863.863,0,0,1,.7-.518,9.617,9.617,0,0,0,3.142-1.171,21.616,21.616,0,0,0,3.247-2.286,41.8,41.8,0,0,0,3.26-3.075q1.633-1.7,3.257-3.566-.249-2.19-.556-4.278a26.135,26.135,0,0,0-.832-3.8,11.881,11.881,0,0,0-1.322-2.958,4.379,4.379,0,0,0-1.961-1.736.974.974,0,0,1-.517-.418,1.187,1.187,0,0,1-.17-.641,1.684,1.684,0,0,1,.147-.675,1.405,1.405,0,0,1,.438-.552,4.36,4.36,0,0,1,1.159-.594,4.035,4.035,0,0,1,1.59-.18,6.287,6.287,0,0,1,2.926.867,7.609,7.609,0,0,1,2.171,2.011,11.4,11.4,0,0,1,1.519,2.9,28.2,28.2,0,0,1,1.009,3.5q1.362-1.6,2.66-3.007a31.512,31.512,0,0,1,2.485-2.439,12.531,12.531,0,0,1,2.239-1.6A3.676,3.676,0,0,1,110.964,101.457Z" transform="translate(-4.663 -2.513)"/><path class="h" d="M119.711,123.945a.413.413,0,0,1,.413-.189.648.648,0,0,1,.39.266.987.987,0,0,1,.182.551,1,1,0,0,1-.244.671q-.265.373-1.02,1.456a17.206,17.206,0,0,1-1.9,2.234,12.941,12.941,0,0,1-2.626,2.022,5.548,5.548,0,0,1-3.159.786,2.923,2.923,0,0,1-2.622-1.5,7.439,7.439,0,0,1-.8-3.493,20.389,20.389,0,0,1,.474-4.514,45.333,45.333,0,0,1,1.2-4.565,37.817,37.817,0,0,1,1.36-3.663,7.1,7.1,0,0,1,.967-1.791,2.079,2.079,0,0,1,1.039-.455,5.728,5.728,0,0,1,1.458-.067,7.813,7.813,0,0,1,1.546.271,4.406,4.406,0,0,1,1.268.556,1.675,1.675,0,0,1,.678.8,1,1,0,0,1-.207.971,13.238,13.238,0,0,0-1.076,1.855,28.689,28.689,0,0,0-1.19,2.761q-.568,1.515-1.034,3.1a16.493,16.493,0,0,0-.6,2.913,6.151,6.151,0,0,0,.1,2.2,1.1,1.1,0,0,0,1.076.913,2.032,2.032,0,0,0,1.357-.51,8.374,8.374,0,0,0,1.291-1.266,17.464,17.464,0,0,0,1.052-1.4C119.373,124.407,119.586,124.1,119.711,123.945Zm-2.059-13.982a3.513,3.513,0,0,1-1.484-.11,3.14,3.14,0,0,1-1.159-.637,2.9,2.9,0,0,1-.983-2.38,3.764,3.764,0,0,1,.371-1.437,4.653,4.653,0,0,1,.869-1.251,4.835,4.835,0,0,1,1.238-.919,4.374,4.374,0,0,1,1.513-.466,3.241,3.241,0,0,1,2.645.712,2.832,2.832,0,0,1,.982,2.416,3.637,3.637,0,0,1-.371,1.418,4.7,4.7,0,0,1-.868,1.234,5.062,5.062,0,0,1-1.257.936A4.345,4.345,0,0,1,117.652,109.963Z" transform="translate(-4.663 -2.513)"/><path class="h" d="M139.785,126.907a1.467,1.467,0,0,1-.376,1.053,18.768,18.768,0,0,1-1.574,1.615,13.365,13.365,0,0,1-2.026,1.528,11.586,11.586,0,0,1-2.411,1.125,7.413,7.413,0,0,1-2.7.378,2.8,2.8,0,0,1-2.487-1.26,5.714,5.714,0,0,1-.7-2.972,18.172,18.172,0,0,1,.5-3.955q.492-2.167,1.106-4.245c.082-.3.152-.6.212-.9a5.441,5.441,0,0,0,.1-.8,1.208,1.208,0,0,0-.1-.582.418.418,0,0,0-.392-.244q-.559-.024-1.408.992a16.052,16.052,0,0,0-1.721,2.625,36,36,0,0,0-1.673,3.573,28.5,28.5,0,0,0-1.262,3.8q-.1.627-.176,1.289t-.142,1.29a.92.92,0,0,1-.489.8,1.635,1.635,0,0,1-.779.195,3.107,3.107,0,0,1-2-.714,3.916,3.916,0,0,1-1.1-1.763,8.4,8.4,0,0,1-.367-2.52,18.3,18.3,0,0,1,.228-2.95,34.408,34.408,0,0,1,.828-3.889q.537-1.974,1.114-3.6t1.095-2.739a6.754,6.754,0,0,1,.74-1.352,2.084,2.084,0,0,1,1.052-.464,5.85,5.85,0,0,1,1.457-.08,7.874,7.874,0,0,1,1.531.256,4.464,4.464,0,0,1,1.273.544,1.683,1.683,0,0,1,.685.8,1,1,0,0,1-.2.973,12.638,12.638,0,0,0-1.115,1.95q-.633,1.305-1.3,3.064A30.124,30.124,0,0,1,126.992,117a20.031,20.031,0,0,1,1.9-2.25,9.1,9.1,0,0,1,1.883-1.5,3.288,3.288,0,0,1,1.773-.5,2.974,2.974,0,0,1,2.137.843,3.782,3.782,0,0,1,.951,1.967,8.16,8.16,0,0,1,0,2.644,17.447,17.447,0,0,1-.7,2.913c-.079.231-.2.582-.359,1.054s-.328.99-.5,1.555-.334,1.148-.476,1.749a8.86,8.86,0,0,0-.244,1.654,2.821,2.821,0,0,0,.176,1.233.8.8,0,0,0,.767.5,1.592,1.592,0,0,0,1.313-.821q.613-.849,1.255-1.944a1.429,1.429,0,0,1,1.1-.743,1.481,1.481,0,0,1,1.26.421l.135.146A1.434,1.434,0,0,1,139.785,126.907Z" transform="translate(-4.663 -2.513)"/><path class="h" d="M186.413,125.8a.408.408,0,0,1,.405-.2.649.649,0,0,1,.4.252.985.985,0,0,1,.2.546,1,1,0,0,1-.222.678q-.252.381-.972,1.489a17.1,17.1,0,0,1-1.826,2.295,12.9,12.9,0,0,1-2.559,2.107,5.554,5.554,0,0,1-3.13.89,2.8,2.8,0,0,1-2.517-1.2,5.7,5.7,0,0,1-.77-2.954,18.161,18.161,0,0,1,.4-3.966q.441-2.179,1-4.27c.075-.3.138-.6.191-.906a5.365,5.365,0,0,0,.084-.8,1.2,1.2,0,0,0-.112-.58.423.423,0,0,0-.4-.234q-.525-.009-1.312.957a15.3,15.3,0,0,0-1.6,2.508,35.859,35.859,0,0,0-1.566,3.421,28.406,28.406,0,0,0-1.2,3.689q-.084.768-.133,1.555t-.1,1.591a.913.913,0,0,1-.488.815,1.708,1.708,0,0,1-.756.214,3.3,3.3,0,0,1-1.69-.415,2.768,2.768,0,0,1-1.013-1.122,5.4,5.4,0,0,1-.512-1.742,14.583,14.583,0,0,1-.117-2.242c-.121.185-.252.375-.4.57s-.3.4-.466.605a19.45,19.45,0,0,1-1.41,1.551,9.268,9.268,0,0,1-3.8,2.259,7.963,7.963,0,0,1-2.491.324,11.366,11.366,0,0,1-4.256-.812,7.124,7.124,0,0,1-2.9-2.169,7.245,7.245,0,0,1-1.409-3.421,12.474,12.474,0,0,1,.257-4.6,14.881,14.881,0,0,1,1.688-4.381,11.082,11.082,0,0,1,2.609-3.051,9.224,9.224,0,0,1,3.233-1.676,8.178,8.178,0,0,1,3.522-.217,19.074,19.074,0,0,1,1.941-4.779,14.192,14.192,0,0,1,3.2-3.863,12.288,12.288,0,0,1,4.313-2.339,11.255,11.255,0,0,1,5.308-.238q.382.076,1.115.265a7.484,7.484,0,0,1,1.374.5,2.783,2.783,0,0,1,.984.736.769.769,0,0,1-.017.979,22.667,22.667,0,0,0-1.787,3.084,45.647,45.647,0,0,0-1.828,4.29q-.9,2.418-1.705,5.325t-1.389,6.259a36.1,36.1,0,0,1,1.865-3.5,25.75,25.75,0,0,1,2.12-3.025,11.376,11.376,0,0,1,2.208-2.113,3.578,3.578,0,0,1,2.1-.768,2.974,2.974,0,0,1,2.156.791,3.774,3.774,0,0,1,1,1.942,8.154,8.154,0,0,1,.059,2.645,17.554,17.554,0,0,1-.63,2.929c-.075.232-.192.587-.352,1.061s-.321,1-.483,1.568-.3,1.155-.416,1.759a9.939,9.939,0,0,0-.188,1.66,2.834,2.834,0,0,0,.206,1.229.8.8,0,0,0,.78.486,2.037,2.037,0,0,0,1.339-.553,8.279,8.279,0,0,0,1.248-1.309,17.46,17.46,0,0,0,1.006-1.435C186.088,126.271,186.293,125.959,186.413,125.8Zm-20.158-.324a68.579,68.579,0,0,1,.935-7.3q.659-3.594,1.519-6.642a46.734,46.734,0,0,1,1.81-5.323,14.509,14.509,0,0,1,1.774-3.311,8.709,8.709,0,0,0-3.29.921,12.272,12.272,0,0,0-3.085,2.2,16.463,16.463,0,0,0-2.6,3.279,15.554,15.554,0,0,0-1.754,4.152,5.241,5.241,0,0,1,1.682.923,5.248,5.248,0,0,1,1.786,2.867,6.4,6.4,0,0,1,.182,1.6,6.82,6.82,0,0,1-.667,3.017,2.035,2.035,0,0,1-1.964,1.207,2.5,2.5,0,0,1-1.271-.355,3.587,3.587,0,0,1-1.016-.929,4.182,4.182,0,0,1-.676-1.359,5.487,5.487,0,0,1-.215-1.685q.012-.7.075-1.311a7.558,7.558,0,0,1,.214-1.169q-.9-.4-2.154,1.047a14.565,14.565,0,0,0-2.334,5.279q-1.122,4.006-.094,6.212a3.775,3.775,0,0,0,3.654,2.253,8.342,8.342,0,0,0,1.314-.081,4.678,4.678,0,0,0,1.3-.4,7.309,7.309,0,0,0,1.363-.85,12.38,12.38,0,0,0,1.531-1.444,10.407,10.407,0,0,0,1.219-1.64A11.007,11.007,0,0,1,166.255,125.474Z" transform="translate(-4.663 -2.513)"/><path class="h" d="M206.21,125.693a.412.412,0,0,1,.4-.21.655.655,0,0,1,.4.246.98.98,0,0,1,.21.542,1,1,0,0,1-.209.682q-.246.385-.945,1.506a17.138,17.138,0,0,1-1.784,2.327,12.926,12.926,0,0,1-2.52,2.154,5.562,5.562,0,0,1-3.114.946,2.919,2.919,0,0,1-2.468-1.068,6.073,6.073,0,0,1-1.1-2.782,10.289,10.289,0,0,1-2.818,2.731,7.106,7.106,0,0,1-4.007,1.121,2.925,2.925,0,0,1-2.695-1.365,7.428,7.428,0,0,1-.98-3.447,20.439,20.439,0,0,1,.243-4.532,45.367,45.367,0,0,1,.962-4.62,37.356,37.356,0,0,1,1.172-3.729,7.056,7.056,0,0,1,.874-1.838,2.1,2.1,0,0,1,1.032-.506,5.788,5.788,0,0,1,1.453-.141,7.733,7.733,0,0,1,1.54.192,4.437,4.437,0,0,1,1.295.49,1.682,1.682,0,0,1,.718.769,1,1,0,0,1-.158.981,12.994,12.994,0,0,0-.979,1.907,28.493,28.493,0,0,0-1.05,2.818q-.489,1.542-.874,3.151a16.364,16.364,0,0,0-.454,2.939,6.11,6.11,0,0,0,.21,2.188,1.1,1.1,0,0,0,1.12.857,1.574,1.574,0,0,0,1.155-.63,7.155,7.155,0,0,0,1.033-1.593,18.181,18.181,0,0,0,.856-2.083q.386-1.119.63-2.134.279-1.645.7-3.221t.84-2.835q.418-1.26.769-2.1a3.791,3.791,0,0,1,.56-1.049,2.082,2.082,0,0,1,1.032-.508,5.832,5.832,0,0,1,1.452-.141,7.874,7.874,0,0,1,1.54.192,4.432,4.432,0,0,1,1.295.491,1.661,1.661,0,0,1,.718.769,1,1,0,0,1-.157.98,13.257,13.257,0,0,0-.98,1.908,28.641,28.641,0,0,0-1.048,2.817q-.492,1.542-.875,3.151a16.451,16.451,0,0,0-.454,2.94,6.113,6.113,0,0,0,.21,2.188,1.1,1.1,0,0,0,1.121.857,2.047,2.047,0,0,0,1.33-.578,8.447,8.447,0,0,0,1.224-1.33q.559-.753.98-1.453C205.9,126.172,206.093,125.857,206.21,125.693Zm-5.079-18.408a9.845,9.845,0,0,0-2.66,2.03,22.2,22.2,0,0,0-1.678,2.031,1.016,1.016,0,0,1-1.4.35.953.953,0,0,1-.349-.455,1.012,1.012,0,0,1-.036-.594,13.887,13.887,0,0,1,1.452-4.131,5.4,5.4,0,0,1,1.836-2.031,2.073,2.073,0,0,1,1.856-.158,3.069,3.069,0,0,1,1.5,1.452,1.008,1.008,0,0,1,.053.84A1.13,1.13,0,0,1,201.131,107.285Z" transform="translate(-4.663 -2.513)"/><path class="h" d="M222.152,127.642a1.461,1.461,0,0,1-.324,1.069,17.259,17.259,0,0,1-1.511,1.691,14.115,14.115,0,0,1-1.966,1.624,11.718,11.718,0,0,1-2.336,1.242,7.233,7.233,0,0,1-2.657.508,11.329,11.329,0,0,1-4.274-.7,7.126,7.126,0,0,1-2.956-2.1,7.252,7.252,0,0,1-1.494-3.384,12.489,12.489,0,0,1,.142-4.6,14.436,14.436,0,0,1,1.647-4.545,11.911,11.911,0,0,1,2.656-3.2,8.507,8.507,0,0,1,3.295-1.72,7.533,7.533,0,0,1,3.6-.061,5.752,5.752,0,0,1,2.194.982,4.77,4.77,0,0,1,1.5,1.827,6.048,6.048,0,0,1,.527,2.656,9.887,9.887,0,0,1-.728,3.434,2.793,2.793,0,0,1-1.545,1.8,2.2,2.2,0,0,1-1.8-.128,2.812,2.812,0,0,1-1.271-1.495,2.966,2.966,0,0,1,.054-2.275,8.089,8.089,0,0,0,.578-2.42q.061-1.085-.4-1.292a1.118,1.118,0,0,0-.979.042,3.072,3.072,0,0,0-1.131,1.023,11.289,11.289,0,0,0-1.157,2.091,19.74,19.74,0,0,0-1.062,3.245q-1.02,4.034.062,6.212a3.773,3.773,0,0,0,3.708,2.161,2.826,2.826,0,0,0,1.5-.465,6.12,6.12,0,0,0,1.322-1.129,10.562,10.562,0,0,0,1.057-1.426q.467-.756.743-1.317a1.421,1.421,0,0,1,1.061-.795,1.478,1.478,0,0,1,1.281.358l.141.139A1.382,1.382,0,0,1,222.152,127.642Z" transform="translate(-4.663 -2.513)"/><path class="h" d="M263.8,125.707a.413.413,0,0,1,.4-.207.651.651,0,0,1,.4.248.989.989,0,0,1-.01,1.226q-.248.384-.956,1.5a17.029,17.029,0,0,1-1.8,2.314,13.155,13.155,0,0,1-2.519,2.133,5.462,5.462,0,0,1-3.105.921,2.831,2.831,0,0,1-2.563-1.175,5.7,5.7,0,0,1-.8-2.945,18.122,18.122,0,0,1,.363-3.971q.419-2.182.96-4.28c.073-.3.133-.606.182-.908a5.271,5.271,0,0,0,.076-.805,1.2,1.2,0,0,0-.118-.578.42.42,0,0,0-.4-.231q-.49,0-1.144.761a12.581,12.581,0,0,0-1.345,2,29.15,29.15,0,0,0-1.369,2.824,32.34,32.34,0,0,0-1.18,3.229q-.324,1.222-.562,2.48a20.432,20.432,0,0,0-.316,2.484.918.918,0,0,1-.461.818,1.637,1.637,0,0,1-.772.222,2.831,2.831,0,0,1-2.563-1.175,5.715,5.715,0,0,1-.8-2.946,18.237,18.237,0,0,1,.363-3.97q.42-2.184.96-4.28c.073-.3.133-.606.183-.909a5.377,5.377,0,0,0,.076-.8,1.21,1.21,0,0,0-.118-.578.421.421,0,0,0-.4-.231q-.561,0-1.373,1.039a15.937,15.937,0,0,0-1.63,2.683,35.788,35.788,0,0,0-1.551,3.628,28.458,28.458,0,0,0-1.132,3.841q-.15,1.294-.23,2.588a.919.919,0,0,1-.461.82,1.646,1.646,0,0,1-.772.221,3.1,3.1,0,0,1-2.025-.645,3.923,3.923,0,0,1-1.16-1.724,8.387,8.387,0,0,1-.453-2.507,18.22,18.22,0,0,1,.128-2.956,34.119,34.119,0,0,1,.7-3.915q.468-1.99.99-3.632t1-2.775a6.819,6.819,0,0,1,.693-1.377,2.1,2.1,0,0,1,1.036-.5,5.906,5.906,0,0,1,1.453-.129,7.792,7.792,0,0,1,1.539.2,4.414,4.414,0,0,1,1.291.5,1.679,1.679,0,0,1,.712.776,1,1,0,0,1-.165.979A12.6,12.6,0,0,0,242,117.98q-.586,1.326-1.2,3.106a29.857,29.857,0,0,1,1.684-2.787,19.878,19.878,0,0,1,1.82-2.314,9.1,9.1,0,0,1,1.832-1.561,3.317,3.317,0,0,1,3.588-.077,2.964,2.964,0,0,1,1.075,1.285,5.028,5.028,0,0,1,.406,1.858,12.931,12.931,0,0,1-.1,2.2q.744-1.218,1.522-2.28a14.228,14.228,0,0,1,1.589-1.843,7.638,7.638,0,0,1,1.6-1.213,3.121,3.121,0,0,1,1.525-.425,2.975,2.975,0,0,1,2.164.768,3.781,3.781,0,0,1,1.018,1.934,8.143,8.143,0,0,1,.085,2.642,17.449,17.449,0,0,1-.6,2.936q-.108.35-.323,1.065t-.45,1.572q-.234.857-.416,1.764a8.9,8.9,0,0,0-.188,1.661,2.836,2.836,0,0,0,.218,1.227.8.8,0,0,0,.784.479,2.042,2.042,0,0,0,1.334-.568,8.339,8.339,0,0,0,1.236-1.32q.566-.748.991-1.445T263.8,125.707Z" transform="translate(-4.663 -2.513)"/><path class="h" d="M280.916,118.557a24.945,24.945,0,0,0-1.074,2.707q-.522,1.53-.942,3.131a16.457,16.457,0,0,0-.518,2.929,6.154,6.154,0,0,0,.162,2.192,1.1,1.1,0,0,0,1.1.882,2.048,2.048,0,0,0,1.342-.549,8.455,8.455,0,0,0,1.254-1.3q.576-.739,1.01-1.432t.616-.931a.41.41,0,0,1,.407-.2.646.646,0,0,1,.4.253.983.983,0,0,1,.2.547,1,1,0,0,1-.225.678q-.253.38-.977,1.484a17.046,17.046,0,0,1-1.834,2.288,12.862,12.862,0,0,1-2.566,2.1,5.551,5.551,0,0,1-3.135.878,2.914,2.914,0,0,1-2.443-1.12,6.091,6.091,0,0,1-1.043-2.806,10.3,10.3,0,0,1-2.875,2.669,7.1,7.1,0,0,1-4.031,1.034,2.927,2.927,0,0,1-2.665-1.422,7.464,7.464,0,0,1-.906-3.468,20.468,20.468,0,0,1,.342-4.527,45.445,45.445,0,0,1,1.062-4.6,37.621,37.621,0,0,1,1.253-3.7,7.031,7.031,0,0,1,.914-1.819,2.111,2.111,0,0,1,1.043-.485,5.844,5.844,0,0,1,1.455-.108,7.825,7.825,0,0,1,1.536.225,4.45,4.45,0,0,1,1.284.518,1.671,1.671,0,0,1,.7.785,1,1,0,0,1-.178.976,13.314,13.314,0,0,0-1.021,1.886,28.561,28.561,0,0,0-1.11,2.8q-.523,1.53-.943,3.13a16.384,16.384,0,0,0-.517,2.93,6.1,6.1,0,0,0,.162,2.191,1.1,1.1,0,0,0,1.1.882,1.568,1.568,0,0,0,1.168-.606A7.064,7.064,0,0,0,271.489,128a18.026,18.026,0,0,0,.9-2.063q.41-1.113.676-2.121.315-1.639.769-3.2t.9-2.816q.447-1.251.815-2.083a3.817,3.817,0,0,1,.582-1.038,2.1,2.1,0,0,1,1.043-.485,5.9,5.9,0,0,1,1.455-.109,7.752,7.752,0,0,1,1.537.226,4.461,4.461,0,0,1,1.284.517,1.792,1.792,0,0,1,.717.785v.036c.56.036.924-.062,1.092-.291q.217-.311-.105-.808a5.412,5.412,0,0,0-1.044-1.107,1.936,1.936,0,0,1-.776-1.313.994.994,0,0,1,.652-1.036l.6-.232a2.142,2.142,0,0,1,1.348.046,2.729,2.729,0,0,1,1.259.85,6.213,6.213,0,0,1,1.17,1.758,4.412,4.412,0,0,1,.384,1.723,2.883,2.883,0,0,1-.418,1.514,3.367,3.367,0,0,1-1.233,1.164,6.376,6.376,0,0,1-3.516.695A5.982,5.982,0,0,1,280.916,118.557ZM270,108.345a1.132,1.132,0,0,1-.562-.678,1,1,0,0,1,.07-.838,3.239,3.239,0,0,1,1.554-1.42,2.072,2.072,0,0,1,1.851.2,5.233,5.233,0,0,1,1.794,2.07,14.944,14.944,0,0,1,1.38,4.16,1.031,1.031,0,0,1-.047.595.914.914,0,0,1-.395.446.9.9,0,0,1-.72.107,1.133,1.133,0,0,1-.673-.487,17.994,17.994,0,0,0-1.6-2.064A9.612,9.612,0,0,0,270,108.345Z" transform="translate(-4.663 -2.513)"/><path class="h" d="M302.909,126.9a.41.41,0,0,1,.409-.2.644.644,0,0,1,.393.26.985.985,0,0,1,.191.55,1,1,0,0,1-.235.674q-.259.376-1,1.469a17.124,17.124,0,0,1-1.87,2.261,13.233,13.233,0,0,1-2.58,2.06,5.475,5.475,0,0,1-3.13.83,2.833,2.833,0,0,1-2.528-1.248,5.705,5.705,0,0,1-.715-2.968,18.084,18.084,0,0,1,.479-3.958q.481-2.171,1.084-4.251c.081-.3.149-.6.208-.9a5.384,5.384,0,0,0,.1-.8,1.217,1.217,0,0,0-.1-.581.42.42,0,0,0-.394-.242q-.561-.021-1.4,1a16.017,16.017,0,0,0-1.707,2.634,35.784,35.784,0,0,0-1.655,3.581,28.536,28.536,0,0,0-1.243,3.808q-.093.627-.169,1.289t-.135,1.291a.919.919,0,0,1-.486.806,1.637,1.637,0,0,1-.777.2,3.108,3.108,0,0,1-2.006-.7A3.923,3.923,0,0,1,282.53,132a8.394,8.394,0,0,1-.38-2.519,18.377,18.377,0,0,1,.213-2.951,34.351,34.351,0,0,1,.808-3.892q.528-1.979,1.1-3.6t1.082-2.745a6.707,6.707,0,0,1,.733-1.356,2.092,2.092,0,0,1,1.049-.47,5.892,5.892,0,0,1,1.457-.086,7.739,7.739,0,0,1,1.533.248,4.433,4.433,0,0,1,1.275.537,1.676,1.676,0,0,1,.69.8,1.006,1.006,0,0,1-.194.974,12.676,12.676,0,0,0-1.105,1.956q-.625,1.308-1.285,3.07a29.516,29.516,0,0,1,1.763-2.737,19.782,19.782,0,0,1,1.887-2.26,9.088,9.088,0,0,1,1.876-1.508,3.289,3.289,0,0,1,1.77-.513,2.981,2.981,0,0,1,2.141.831,3.79,3.79,0,0,1,.962,1.962,8.2,8.2,0,0,1,.008,2.645,17.48,17.48,0,0,1-.685,2.917c-.079.23-.2.583-.354,1.055s-.323.993-.494,1.558-.33,1.15-.468,1.751a8.918,8.918,0,0,0-.236,1.655,2.825,2.825,0,0,0,.183,1.233.8.8,0,0,0,.77.5,2.045,2.045,0,0,0,1.35-.528,8.416,8.416,0,0,0,1.273-1.285q.585-.731,1.032-1.416T302.909,126.9Z" transform="translate(-4.663 -2.513)"/><path class="h" d="M320.735,140.138a2.021,2.021,0,0,1,.747,1.289,1.941,1.941,0,0,1-.311,1.4l-.539.81a2.026,2.026,0,0,1-.74.657,2.063,2.063,0,0,1-.907.227,2.133,2.133,0,0,1-.918-.195,1.966,1.966,0,0,1-.769-.641,8.483,8.483,0,0,0-1.922-1.885,7.573,7.573,0,0,0-2.489-1.182q-1.023,2.5-2.215,4.83a28.048,28.048,0,0,1-2.541,4.126,12.145,12.145,0,0,1-2.884,2.827,5.1,5.1,0,0,1-3.211.932,4.668,4.668,0,0,1-1.985-.539,4.519,4.519,0,0,1-1.451-1.242,5.09,5.09,0,0,1-.856-1.822,7.388,7.388,0,0,1-.2-2.273,9.084,9.084,0,0,1,1.106-3.861,11.288,11.288,0,0,1,2.591-3.178,13.339,13.339,0,0,1,3.725-2.233,15.585,15.585,0,0,1,4.517-1.065q.287-.719.54-1.423t.468-1.392a5.941,5.941,0,0,1-3.778,1.038A5.7,5.7,0,0,1,304,134.5a5.282,5.282,0,0,1-1.925-2.13,8.1,8.1,0,0,1-.8-3.344,13.435,13.435,0,0,1,.65-4.449,15.184,15.184,0,0,1,2.015-4.421,10.291,10.291,0,0,1,2.447-2.537,6.986,6.986,0,0,1,2.469-1.133,7.94,7.94,0,0,1,2.116-.208,5.012,5.012,0,0,1,2.173.6,3.375,3.375,0,0,1,1.392,1.362,7.985,7.985,0,0,1,.713-1.956,1.442,1.442,0,0,1,.926-.558,4.58,4.58,0,0,1,1.426-.091,6.833,6.833,0,0,1,1.559.32,5.274,5.274,0,0,1,1.33.622,1.815,1.815,0,0,1,.721.849,1,1,0,0,1-.2.988,7.459,7.459,0,0,0-.921,1.628q-.5,1.127-1.084,2.618t-1.155,3.228q-.577,1.735-1.1,3.423-.479,1.55-1.127,3.632t-1.49,4.417a18.745,18.745,0,0,1,3.449.976A12.1,12.1,0,0,1,320.735,140.138Zm-18.8,7.756a2.373,2.373,0,0,0,1.521-.524,7.832,7.832,0,0,0,1.566-1.572,20.271,20.271,0,0,0,1.541-2.346q.764-1.339,1.448-2.842a13.926,13.926,0,0,0-2.884.741,11.375,11.375,0,0,0-2.422,1.241A6.639,6.639,0,0,0,301,144.244a3.773,3.773,0,0,0-.713,1.974,1.573,1.573,0,0,0,.352,1.16A1.776,1.776,0,0,0,301.938,147.894Zm6-16.579a1.276,1.276,0,0,0,1.073-.077,3.808,3.808,0,0,0,1.178-.929,10.259,10.259,0,0,0,1.147-1.6,13.166,13.166,0,0,0,1.585-4.288,9.332,9.332,0,0,0,.152-1.955,4.074,4.074,0,0,0-.3-1.473,1.31,1.31,0,0,0-.744-.763,1.4,1.4,0,0,0-1.076.112,4.082,4.082,0,0,0-1.194.911,8.919,8.919,0,0,0-1.163,1.579,13.158,13.158,0,0,0-1.588,4.306,9.353,9.353,0,0,0-.15,1.954,3.784,3.784,0,0,0,.316,1.457A1.369,1.369,0,0,0,307.935,131.315Z" transform="translate(-4.663 -2.513)"/></svg>